<?xml version="1.0" standalone="no"?>
<!-- Generator: Adobe Fireworks 10, Export SVG Extension by Aaron Beall (http://fireworks.abeall.com) . Version: 0.6.1  -->
<!DOCTYPE svg PUBLIC "-//W3C//DTD SVG 1.1//EN" "http://www.w3.org/Graphics/SVG/1.1/DTD/svg11.dtd">
<svg id="Untitled-Page%201" viewBox="0 0 20 20" style="background-color:#ffffff00" version="1.1"
	xmlns="http://www.w3.org/2000/svg" xmlns:xlink="http://www.w3.org/1999/xlink" xml:space="preserve"
	x="0px" y="0px" width="20px" height="20px"
>
	<g id="Layer%201">
		<path id="PLUS" d="M 18.6957 11.3043 L 11.3043 11.3043 L 11.3043 18.6957 C 11.3043 19.4161 10.7203 20 10 20 C 9.2797 20 8.6957 19.4161 8.6957 18.6957 L 8.6957 11.3043 L 1.3043 11.3043 C 0.584 11.3043 0 10.7203 0 10 C 0 9.2797 0.584 8.6957 1.3043 8.6957 L 8.6957 8.6957 L 8.6957 1.3043 C 8.6957 0.584 9.2797 0 10 0 C 10.7203 0 11.3043 0.584 11.3043 1.3043 L 11.3043 8.6957 L 18.6957 8.6957 C 19.4161 8.6957 20 9.2797 20 10 C 20 10.7203 19.4161 11.3043 18.6957 11.3043 Z" fill="#555555"/>
	</g>
</svg>