<?xml version="1.0" standalone="no"?>
<!-- Generator: Adobe Fireworks 10, Export SVG Extension by Aaron Beall (http://fireworks.abeall.com) . Version: 0.6.1  -->
<!DOCTYPE svg PUBLIC "-//W3C//DTD SVG 1.1//EN" "http://www.w3.org/Graphics/SVG/1.1/DTD/svg11.dtd">
<svg id="Untitled-Page%201" viewBox="0 0 20 20" style="background-color:#ffffff00" version="1.1"
	xmlns="http://www.w3.org/2000/svg" xmlns:xlink="http://www.w3.org/1999/xlink" xml:space="preserve"
	x="0px" y="0px" width="20px" height="20px"
>
	<g id="Layer%201">
		<path id="CIRCLE%20/%20PLUS" d="M 18.125 11.8749 L 11.875 11.8749 L 11.875 18.125 C 11.875 19.1606 11.0355 20 10 20 C 8.9645 20 8.125 19.1606 8.125 18.125 L 8.125 11.8749 L 1.875 11.8749 C 0.8394 11.8749 0 11.0355 0 10 C 0 8.9645 0.8394 8.1251 1.875 8.1251 L 8.125 8.1251 L 8.125 1.8749 C 8.125 0.8394 8.9645 0 10 0 C 11.0355 0 11.875 0.8394 11.875 1.8749 L 11.875 8.1251 L 18.125 8.1251 C 19.1605 8.1251 20 8.9645 20 10 C 20 11.0355 19.1605 11.8749 18.125 11.8749 Z" fill="#2e365c"/>
	</g>
</svg>