<?xml version="1.0" standalone="no"?>
<!-- Generator: Adobe Fireworks 10, Export SVG Extension by Aaron Beall (http://fireworks.abeall.com) . Version: 0.6.1  -->
<!DOCTYPE svg PUBLIC "-//W3C//DTD SVG 1.1//EN" "http://www.w3.org/Graphics/SVG/1.1/DTD/svg11.dtd">
<svg id="Untitled-Page%201" viewBox="0 0 18 20" style="background-color:#ffffff00" version="1.1"
	xmlns="http://www.w3.org/2000/svg" xmlns:xlink="http://www.w3.org/1999/xlink" xml:space="preserve"
	x="0px" y="0px" width="18px" height="20px"
>
	<g id="Layer%201">
		<path id="DOCUMENT%20/%20ADD" d="M 16.9811 18.0339 L 15.9623 18.0339 L 15.9623 19.017 C 15.9623 19.5599 15.5062 20 14.9434 20 C 14.3807 20 13.9245 19.5599 13.9245 19.017 L 13.9245 18.0339 L 12.9057 18.0339 C 12.343 18.0339 11.8868 17.5939 11.8868 17.0509 C 11.8868 16.508 12.343 16.0679 12.9057 16.0679 L 13.9245 16.0679 L 13.9245 15.0848 C 13.9245 14.5419 14.3807 14.1018 14.9434 14.1018 C 15.5062 14.1018 15.9623 14.5419 15.9623 15.0848 L 15.9623 16.0679 L 16.9811 16.0679 C 17.5439 16.0679 18 16.508 18 17.0509 C 18 17.5939 17.5439 18.0339 16.9811 18.0339 ZM 12.9057 15.0848 C 11.7803 15.0848 10.8679 15.9651 10.8679 17.0509 C 10.8679 18.1367 11.7803 19.017 12.9057 19.017 L 12.9057 19.017 L 1.0189 19.017 C 0.4562 19.017 0 18.5768 0 18.0339 L 0 0.9948 C 0 0.4518 0.4562 0.0117 1.0189 0.0117 L 3.3962 0.0117 L 3.3962 0 L 6.4529 0 L 6.4529 3.6123 L 6.4529 5.5826 C 6.4529 6.6708 7.3652 7.5529 8.4905 7.5529 L 10.5283 7.5529 L 14.9434 7.5529 L 14.9434 13.1188 L 14.9434 13.1188 C 13.818 13.1188 12.9057 13.9991 12.9057 15.0848 ZM 8.4905 6.5677 C 7.9279 6.5677 7.4717 6.1268 7.4717 5.5826 L 7.4717 3.6123 L 7.4717 0 L 14.9434 6.5677 L 10.5283 6.5677 L 8.4905 6.5677 Z" fill="#ffffff"/>
	</g>
</svg>