<?xml version="1.0" standalone="no"?>
<!-- Generator: Adobe Fireworks 10, Export SVG Extension by Aaron Beall (http://fireworks.abeall.com) . Version: 0.6.1  -->
<!DOCTYPE svg PUBLIC "-//W3C//DTD SVG 1.1//EN" "http://www.w3.org/Graphics/SVG/1.1/DTD/svg11.dtd">
<svg id="Untitled-Page%201" viewBox="0 0 16 16" style="background-color:#ffffff00" version="1.1"
	xmlns="http://www.w3.org/2000/svg" xmlns:xlink="http://www.w3.org/1999/xlink" xml:space="preserve"
	x="0px" y="0px" width="16px" height="16px"
>
	<g id="Layer%201">
		<path id="CLOSE" d="M 15.5865 2.41 L 9.9966 8 L 15.5865 13.59 L 15.5865 13.59 C 15.8419 13.8455 16 14.1984 16 14.5882 C 16 15.3679 15.3679 16 14.5883 16 C 14.1984 16 13.8455 15.8419 13.59 15.5865 L 13.59 15.5865 L 8 9.9966 L 2.41 15.5865 L 2.41 15.5865 C 2.1545 15.8419 1.8015 16 1.4117 16 C 0.6321 16 0 15.3679 0 14.5882 C 0 14.1984 0.158 13.8455 0.4135 13.59 L 0.4135 13.59 L 6.0034 8 L 0.4135 2.41 L 0.4135 2.41 C 0.158 2.1546 0 1.8016 0 1.4117 C 0 0.6321 0.6321 0 1.4117 0 C 1.8015 0 2.1545 0.158 2.41 0.4135 L 2.41 0.4135 L 8 6.0035 L 13.59 0.4135 L 13.59 0.4135 C 13.8455 0.158 14.1984 0 14.5883 0 C 15.3679 0 16 0.6321 16 1.4117 C 16 1.8016 15.8419 2.1546 15.5865 2.41 L 15.5865 2.41 Z" fill="#ffffff"/>
	</g>
</svg>