<?xml version="1.0" standalone="no"?>
<!-- Generator: Adobe Fireworks 10, Export SVG Extension by Aaron Beall (http://fireworks.abeall.com) . Version: 0.6.1  -->
<!DOCTYPE svg PUBLIC "-//W3C//DTD SVG 1.1//EN" "http://www.w3.org/Graphics/SVG/1.1/DTD/svg11.dtd">
<svg id="Untitled-Page%201" viewBox="0 0 22 30" style="background-color:#ffffff00" version="1.1"
	xmlns="http://www.w3.org/2000/svg" xmlns:xlink="http://www.w3.org/1999/xlink" xml:space="preserve"
	x="0px" y="0px" width="22px" height="30px"
>
	<g id="Layer%201">
		<path id="DOCUMENT" d="M 20.5 30 L 1.5 30 C 0.6716 30 0 29.3056 0 28.4492 L 0 1.5692 C 0 0.7129 0.6715 0.0185 1.5 0.0184 L 9.5 0.0184 L 9.5 5.6985 L 9.5 8.8068 C 9.5 10.5234 10.8431 11.9152 12.5 11.9152 L 15.5 11.9152 L 22 11.9152 L 22 24.3138 L 22 28.4492 C 22 29.3056 21.3284 30 20.5 30 ZM 12.5 10.361 C 11.6715 10.361 11 9.6651 11 8.8068 L 11 5.6985 L 11 0 L 22 10.361 L 15.5 10.361 L 12.5 10.361 Z" fill="#2c3359"/>
	</g>
</svg>