<?xml version="1.0" standalone="no"?>
<!-- Generator: Adobe Fireworks 10, Export SVG Extension by Aaron Beall (http://fireworks.abeall.com) . Version: 0.6.1  -->
<!DOCTYPE svg PUBLIC "-//W3C//DTD SVG 1.1//EN" "http://www.w3.org/Graphics/SVG/1.1/DTD/svg11.dtd">
<svg id="Untitled-Page%201" viewBox="0 0 32 32" style="background-color:#ffffff00" version="1.1"
	xmlns="http://www.w3.org/2000/svg" xmlns:xlink="http://www.w3.org/1999/xlink" xml:space="preserve"
	x="0px" y="0px" width="32px" height="32px"
>
	<g id="Layer%201">
		<path id="SPEECH%204" d="M 30 19.0001 L 29.55 19.0001 L 29.55 19.0001 L 29 19.0001 L 29 21.5001 L 29 21.5001 C 29 21.6036 28.9895 21.7047 28.9695 21.8023 C 28.9556 21.8705 28.9314 21.9344 28.9086 21.9988 C 28.8987 22.0267 28.8936 22.0567 28.8821 22.0839 C 28.8579 22.1412 28.8247 22.1933 28.7937 22.2468 C 28.7762 22.277 28.7633 22.3099 28.7439 22.3387 C 28.6948 22.4113 28.6379 22.4778 28.5773 22.5406 C 28.5713 22.5468 28.5668 22.5546 28.5607 22.5607 C 28.2935 22.828 27.9253 22.9931 27.5186 22.9982 C 27.5122 22.9982 27.5063 23.0001 27.5 23.0001 L 27.5 23.0001 L 27.5 23.0001 C 27.0858 23.0001 26.7108 22.8322 26.4393 22.5607 L 22.8787 19.0001 L 22.7001 19.0001 L 22.7001 19.0001 L 9 19.0001 C 8.1716 19.0001 7.5 18.3285 7.5 17.5 L 7.5 2.5001 C 7.5 1.6716 8.1716 1 9 1 L 30 1 C 30.8284 1 31.5 1.6716 31.5 2.5001 L 31.5 17.5 C 31.5 18.3285 30.8284 19.0001 30 19.0001 ZM 22.2573 20.5 L 25.4207 23.6633 L 25.4247 23.6593 C 25.9639 24.1777 26.6931 24.5 27.5 24.5 L 27.5 25.5001 C 27.5 26.3285 26.8285 27 26 27 L 26 27.0001 L 15.45 27.0001 L 15.45 27 L 12 27 L 12 27.0001 L 10.5 27.0001 L 10.5 27 L 10.1213 27 L 6.0607 31.0607 C 5.7892 31.3322 5.4142 31.5 5 31.5 L 5 31.5 L 5 31.5 C 4.9937 31.5 4.9878 31.4982 4.9814 31.4982 C 4.5747 31.4931 4.2067 31.328 3.9395 31.0607 C 3.9332 31.0546 3.9288 31.0469 3.9227 31.0406 C 3.8621 30.9778 3.8052 30.9113 3.7562 30.8387 C 3.7367 30.8099 3.7238 30.7769 3.7063 30.7468 C 3.6753 30.6933 3.6421 30.6413 3.6179 30.5839 C 3.6064 30.5568 3.6013 30.5267 3.5914 30.4988 C 3.5686 30.4344 3.5444 30.3705 3.5305 30.3023 C 3.5105 30.2047 3.5 30.1036 3.5 30.0001 L 3.5 30.0001 L 3.5 27.0001 L 3.25 27.0001 L 3.25 27 L 1.4979 27 C 0.6705 26.9989 0 26.3279 0 25.5001 L 0 8.5002 C 0 8.5002 0 8.5001 0 8.5 C 0 7.6716 0.6716 7.0001 1.5 7.0001 L 6 7.0001 L 6 17.5 C 6 19.1569 7.3431 20.5 9 20.5 L 22.2573 20.5 Z" fill="#2e365c"/>
	</g>
</svg>