<?xml version="1.0" standalone="no"?>
<!-- Generator: Adobe Fireworks 10, Export SVG Extension by Aaron Beall (http://fireworks.abeall.com) . Version: 0.6.1  -->
<!DOCTYPE svg PUBLIC "-//W3C//DTD SVG 1.1//EN" "http://www.w3.org/Graphics/SVG/1.1/DTD/svg11.dtd">
<svg id="Untitled-Page%201" viewBox="0 0 19 21" style="background-color:#ffffff00" version="1.1"
	xmlns="http://www.w3.org/2000/svg" xmlns:xlink="http://www.w3.org/1999/xlink" xml:space="preserve"
	x="0px" y="0px" width="19px" height="21px"
>
	<g id="Layer%201">
		<path id="CLOUD%20/%20DOWNLOAD" d="M 6.2656 16.2728 C 6.5837 16.2728 6.8696 16.1333 7.0669 15.9115 L 7.067 15.9116 L 8.4219 14.3883 L 8.4219 19.9092 C 8.4219 20.5117 8.9045 21 9.5 21 C 10.0955 21 10.5781 20.5117 10.5781 19.9092 L 10.5781 14.3883 L 11.9331 15.9116 L 11.9331 15.9116 C 12.1304 16.1334 12.4163 16.2728 12.7344 16.2728 C 13.2926 16.2728 13.7517 15.8435 13.8069 15.2935 C 13.8105 15.2568 13.8125 15.2196 13.8125 15.1819 C 13.8125 15.1816 13.8125 15.1816 13.8125 15.1814 C 13.8125 15.1471 13.8108 15.113 13.8076 15.0796 C 13.8076 15.0787 13.8075 15.0781 13.8074 15.0774 C 13.7849 14.838 13.686 14.6212 13.5356 14.4521 L 13.5356 14.4521 L 10.3013 10.8158 L 10.2986 10.8184 C 10.1011 10.5967 9.8181 10.4546 9.5 10.4546 C 9.1819 10.4546 8.8989 10.5967 8.7015 10.8184 L 8.6987 10.8158 L 5.4644 14.4521 L 5.4644 14.4521 C 5.3137 14.6213 5.2148 14.8384 5.1925 15.078 C 5.1925 15.078 5.1925 15.078 5.1925 15.0781 C 5.1892 15.1123 5.1875 15.1469 5.1875 15.182 C 5.1875 15.7844 5.6702 16.2728 6.2656 16.2728 Z" fill="#555555"/>
		<path d="M 4 20 C 2.3431 20 1 18.6569 1 17 L 1 4 C 1 2.3431 2.3431 1 4 1 L 11 1 C 12.1046 1 13.6332 1.6332 14.4142 2.4142 L 16.5858 4.5858 C 17.3668 5.3668 18 6.8954 18 8 L 18 17 C 18 18.6569 16.6569 20 15 20 L 15 20 " stroke="#555555" stroke-width="2" fill="none"/>
	</g>
</svg>