<?xml version="1.0" standalone="no"?>
<!-- Generator: Adobe Fireworks 10, Export SVG Extension by Aaron Beall (http://fireworks.abeall.com) . Version: 0.6.1  -->
<!DOCTYPE svg PUBLIC "-//W3C//DTD SVG 1.1//EN" "http://www.w3.org/Graphics/SVG/1.1/DTD/svg11.dtd">
<svg id="Untitled-Page%201" viewBox="0 0 19 21" style="background-color:#ffffff00" version="1.1"
	xmlns="http://www.w3.org/2000/svg" xmlns:xlink="http://www.w3.org/1999/xlink" xml:space="preserve"
	x="0px" y="0px" width="19px" height="21px"
>
	<g id="Layer%201">
		<path id="CLOUD%20/%20DOWNLOAD" d="M 6.2656 15.1818 C 6.5837 15.1818 6.8696 15.3213 7.0669 15.5431 L 7.067 15.543 L 8.4219 17.0663 L 8.4219 11.5454 C 8.4219 10.9429 8.9045 10.4546 9.5 10.4546 C 10.0955 10.4546 10.5781 10.9429 10.5781 11.5454 L 10.5781 17.0663 L 11.9331 15.543 L 11.9331 15.543 C 12.1304 15.3212 12.4163 15.1818 12.7344 15.1818 C 13.2926 15.1818 13.7517 15.6111 13.8069 16.1611 C 13.8105 16.1978 13.8125 16.235 13.8125 16.2727 C 13.8125 16.2729 13.8125 16.2729 13.8125 16.2732 C 13.8125 16.3075 13.8108 16.3416 13.8076 16.375 C 13.8076 16.3759 13.8075 16.3765 13.8074 16.3772 C 13.7849 16.6166 13.686 16.8334 13.5356 17.0024 L 13.5356 17.0024 L 10.3013 20.6388 L 10.2986 20.6362 C 10.1011 20.8579 9.8181 21 9.5 21 C 9.1819 21 8.8989 20.8579 8.7015 20.6362 L 8.6987 20.6388 L 5.4644 17.0024 L 5.4644 17.0024 C 5.3137 16.8333 5.2148 16.6162 5.1925 16.3766 C 5.1925 16.3766 5.1925 16.3766 5.1925 16.3765 C 5.1892 16.3423 5.1875 16.3077 5.1875 16.2726 C 5.1875 15.6702 5.6702 15.1818 6.2656 15.1818 Z" fill="#555555"/>
		<path d="M 4 20 C 2.3431 20 1 18.6569 1 17 L 1 4 C 1 2.3431 2.3431 1 4 1 L 11 1 C 12.1046 1 13.6332 1.6332 14.4142 2.4142 L 16.5858 4.5858 C 17.3668 5.3668 18 6.8954 18 8 L 18 17 C 18 18.6569 16.6569 20 15 20 L 15 20 " stroke="#555555" stroke-width="2" fill="none"/>
	</g>
</svg>