<?xml version="1.0" standalone="no"?>
<!-- Generator: Adobe Fireworks 10, Export SVG Extension by Aaron Beall (http://fireworks.abeall.com) . Version: 0.6.1  -->
<!DOCTYPE svg PUBLIC "-//W3C//DTD SVG 1.1//EN" "http://www.w3.org/Graphics/SVG/1.1/DTD/svg11.dtd">
<svg id="Untitled-Page%201" viewBox="0 0 38 50" style="background-color:#ffffff00" version="1.1"
	xmlns="http://www.w3.org/2000/svg" xmlns:xlink="http://www.w3.org/1999/xlink" xml:space="preserve"
	x="0px" y="0px" width="38px" height="50px"
>
	<g id="Layer%201">
		<path id="DOCUMENT" d="M 35.4092 50 L 2.5908 50 C 1.1599 50 0 48.8428 0 47.4154 L 0 2.6154 C 0 1.188 1.1599 0.0308 2.5908 0.0308 L 16.4092 0.0308 L 16.4092 9.4974 L 16.4092 14.678 C 16.4092 17.5391 18.7291 19.8586 21.5908 19.8586 L 26.7727 19.8586 L 38 19.8586 L 38 40.5231 L 38 47.4154 C 38 48.8428 36.8401 50 35.4092 50 ZM 21.5908 17.2683 C 20.1599 17.2683 19 16.1086 19 14.678 L 19 9.4974 L 19 0 L 38 17.2683 L 26.7727 17.2683 L 21.5908 17.2683 Z" fill="#4da6ff"/>
	</g>
</svg>