<?xml version="1.0" standalone="no"?>
<!-- Generator: Adobe Fireworks 10, Export SVG Extension by Aaron Beall (http://fireworks.abeall.com) . Version: 0.6.1  -->
<!DOCTYPE svg PUBLIC "-//W3C//DTD SVG 1.1//EN" "http://www.w3.org/Graphics/SVG/1.1/DTD/svg11.dtd">
<svg id="Untitled-Page%201" viewBox="0 0 19 21" style="background-color:#ffffff00" version="1.1"
	xmlns="http://www.w3.org/2000/svg" xmlns:xlink="http://www.w3.org/1999/xlink" xml:space="preserve"
	x="0px" y="0px" width="19px" height="21px"
>
	<g id="Layer%201">
		<path id="CLOUD%20/%20FAIL" d="M 6.375 12.5385 C 6.6986 12.5385 6.9916 12.6677 7.2036 12.8765 L 7.2036 12.8765 L 9.5 15.1375 L 11.7964 12.8765 L 11.7964 12.8765 C 12.0084 12.6677 12.3014 12.5385 12.625 12.5385 C 13.2722 12.5385 13.7969 13.0551 13.7969 13.6923 C 13.7969 14.011 13.6658 14.2993 13.4536 14.5082 L 13.4536 14.5082 L 11.1572 16.7692 L 13.4536 19.0303 L 13.4536 19.0303 C 13.6658 19.239 13.7969 19.5275 13.7969 19.8462 C 13.7969 20.4834 13.2722 21 12.625 21 C 12.3014 21 12.0084 20.8708 11.7964 20.6621 L 11.7964 20.6621 L 9.5 18.401 L 7.2036 20.6621 L 7.2036 20.6621 C 6.9916 20.8708 6.6986 21 6.375 21 C 5.7278 21 5.2031 20.4834 5.2031 19.8462 C 5.2031 19.5275 5.3344 19.239 5.5464 19.0303 L 5.5464 19.0303 L 7.8428 16.7692 L 5.5464 14.5082 L 5.5464 14.5082 C 5.3344 14.2993 5.2031 14.011 5.2031 13.6923 C 5.2031 13.0551 5.7278 12.5385 6.375 12.5385 Z" fill="#555555"/>
		<path d="M 4 20 C 2.3431 20 1 18.6569 1 17 L 1 4 C 1 2.3431 2.3431 1 4 1 L 11 1 C 12.1046 1 13.6332 1.6332 14.4142 2.4142 L 16.5858 4.5858 C 17.3668 5.3668 18 6.8954 18 8 L 18 17 C 18 18.6569 16.6569 20 15 20 L 15 20 " stroke="#555555" stroke-width="2" fill="none"/>
	</g>
</svg>