<?xml version="1.0" standalone="no"?>
<!-- Generator: Adobe Fireworks 10, Export SVG Extension by Aaron Beall (http://fireworks.abeall.com) . Version: 0.6.1  -->
<!DOCTYPE svg PUBLIC "-//W3C//DTD SVG 1.1//EN" "http://www.w3.org/Graphics/SVG/1.1/DTD/svg11.dtd">
<svg id="Untitled-Page%201" viewBox="0 0 23 16" style="background-color:#ffffff00" version="1.1"
	xmlns="http://www.w3.org/2000/svg" xmlns:xlink="http://www.w3.org/1999/xlink" xml:space="preserve"
	x="0px" y="0px" width="23px" height="16px"
>
	<g id="Layer%201">
		<path id="TICK" d="M 22.5189 2.8256 L 22.5189 2.8256 L 9.9236 15.5153 L 9.9236 15.5153 C 9.6262 15.8148 9.2157 16 8.7618 16 C 8.3083 16 7.8976 15.8148 7.6003 15.5153 L 7.6003 15.5153 L 0.4813 8.3428 L 0.4813 8.3428 C 0.1838 8.0434 0 7.6295 0 7.1725 C 0 6.2582 0.7356 5.5172 1.6428 5.5172 C 2.0966 5.5172 2.5072 5.7025 2.8046 6.0021 L 2.8046 6.0021 L 8.7618 12.004 L 20.1956 0.4848 L 20.1956 0.4848 C 20.4928 0.1853 20.9034 0 21.3572 0 C 22.2645 0 23 0.741 23 1.6552 C 23 2.1122 22.8162 2.5261 22.5189 2.8256 Z" fill="#6dd801"/>
	</g>
</svg>