<?xml version="1.0" standalone="no"?>
<!-- Generator: Adobe Fireworks 10, Export SVG Extension by Aaron Beall (http://fireworks.abeall.com) . Version: 0.6.1  -->
<!DOCTYPE svg PUBLIC "-//W3C//DTD SVG 1.1//EN" "http://www.w3.org/Graphics/SVG/1.1/DTD/svg11.dtd">
<svg id="menu_projects_icon-Page%201" viewBox="0 0 32 26" style="background-color:#ffffff00" version="1.1"
	xmlns="http://www.w3.org/2000/svg" xmlns:xlink="http://www.w3.org/1999/xlink" xml:space="preserve"
	x="0px" y="0px" width="32px" height="26px"
>
	<g id="Background">
		<path id="NOTEPAD" d="M 26.7586 26 L 5.2414 26 C 4.5558 26 4 25.4544 4 24.7813 L 4 3.6563 C 4 2.9832 4.5558 2.4375 5.2414 2.4375 L 7.3104 2.4375 L 7.3104 3.6563 C 7.3104 5.0024 8.4219 6.0938 9.7931 6.0938 C 11.1643 6.0938 12.2759 5.0024 12.2759 3.6563 L 12.2759 2.4375 L 13.5172 2.4375 L 13.5172 3.6563 C 13.5172 5.0024 14.6288 6.0938 16 6.0938 C 17.3712 6.0938 18.4828 5.0024 18.4828 3.6563 L 18.4828 2.4375 L 19.7242 2.4375 L 19.7242 3.6563 C 19.7242 5.0024 20.8357 6.0938 22.2069 6.0938 C 23.5781 6.0938 24.6897 5.0024 24.6897 3.6563 L 24.6897 2.4375 L 26.7586 2.4375 C 27.4442 2.4375 28 2.9832 28 3.6563 L 28 24.7813 C 28 25.4544 27.4442 26 26.7586 26 ZM 23.4483 9.3438 L 8.5517 9.3438 C 7.8661 9.3438 7.3104 9.8894 7.3104 10.5625 C 7.3104 11.2356 7.8661 11.7813 8.5517 11.7813 L 23.4483 11.7813 C 24.1339 11.7813 24.6897 11.2356 24.6897 10.5625 C 24.6897 9.8894 24.1339 9.3438 23.4483 9.3438 ZM 23.4483 14.625 L 8.5517 14.625 C 7.8661 14.625 7.3104 15.1707 7.3104 15.8438 C 7.3104 16.5168 7.8661 17.0626 8.5517 17.0626 L 23.4483 17.0626 C 24.1339 17.0626 24.6897 16.5168 24.6897 15.8438 C 24.6897 15.1707 24.1339 14.625 23.4483 14.625 ZM 23.6552 19.9063 L 8.3448 19.9063 C 7.7735 19.9063 7.3104 20.361 7.3104 20.9219 C 7.3104 21.4828 7.7735 21.9375 8.3448 21.9375 L 23.6552 21.9375 C 24.2265 21.9375 24.6897 21.4828 24.6897 20.9219 C 24.6897 20.361 24.2265 19.9063 23.6552 19.9063 ZM 22.2069 4.875 C 21.5213 4.875 20.9655 4.3294 20.9655 3.6563 L 20.9655 1.2188 C 20.9655 0.5457 21.5213 0 22.2069 0 C 22.8925 0 23.4483 0.5457 23.4483 1.2188 L 23.4483 3.6563 C 23.4483 4.3294 22.8925 4.875 22.2069 4.875 ZM 16 4.875 C 15.3144 4.875 14.7587 4.3294 14.7587 3.6563 L 14.7587 1.2188 C 14.7587 0.5457 15.3144 0 16 0 C 16.6856 0 17.2414 0.5457 17.2414 1.2188 L 17.2414 3.6563 C 17.2414 4.3294 16.6856 4.875 16 4.875 ZM 9.7931 4.875 C 9.1075 4.875 8.5517 4.3294 8.5517 3.6563 L 8.5517 1.2188 C 8.5517 0.5457 9.1075 0 9.7931 0 C 10.4787 0 11.0345 0.5457 11.0345 1.2188 L 11.0345 3.6563 C 11.0345 4.3294 10.4787 4.875 9.7931 4.875 Z" fill="#2e365c"/>
	</g>
	<g id="Layer%201">
	</g>
</svg>