<?xml version="1.0" standalone="no"?>
<!-- Generator: Adobe Fireworks 10, Export SVG Extension by Aaron Beall (http://fireworks.abeall.com) . Version: 0.6.1  -->
<!DOCTYPE svg PUBLIC "-//W3C//DTD SVG 1.1//EN" "http://www.w3.org/Graphics/SVG/1.1/DTD/svg11.dtd">
<svg id="Untitled-Page%201" viewBox="0 0 32 26" style="background-color:#ffffff00" version="1.1"
	xmlns="http://www.w3.org/2000/svg" xmlns:xlink="http://www.w3.org/1999/xlink" xml:space="preserve"
	x="0px" y="0px" width="32px" height="26px"
>
	<g id="Layer%201">
		<path id="HOME" d="M 30 13.6394 C 30 14.3456 29.4124 14.9181 28.6875 14.9181 C 28.3417 14.9181 27.792 14.5753 27.792 14.5753 L 16 3.0879 L 4.234 14.5497 C 3.9971 14.7774 3.6717 14.9181 3.3126 14.9181 C 2.5876 14.9181 2 14.3456 2 13.6394 C 2 13.2772 2.1549 12.9504 2.4033 12.7177 L 15.054 0.3929 C 15.2928 0.1509 15.4742 -0.0038 16.0005 0.0001 C 16.5268 0.004 16.7509 0.1888 16.9598 0.407 L 16.9606 0.4063 L 22.125 5.4376 L 22.125 4.2623 C 22.125 3.5562 22.7126 2.9837 23.4375 2.9837 C 24.1624 2.9837 24.75 3.5562 24.75 4.2623 L 24.75 7.995 L 29.645 12.77 C 29.8636 12.9984 30 13.3024 30 13.6394 ZM 27.375 15.7705 L 27.375 24.7214 C 27.375 25.4276 26.7874 26 26.0625 26 L 24.4745 26 C 23.9018 26 23.4375 25.5523 23.4375 25 L 23.4375 17.7705 C 23.4375 16.666 22.5089 15.7705 21.3634 15.7705 L 20.2616 15.7705 C 19.1161 15.7705 18.1875 16.666 18.1875 17.7705 L 18.1875 25 C 18.1875 25.5523 17.7232 26 17.1505 26 L 5.9375 26 C 5.2126 26 4.625 25.4276 4.625 24.7214 L 4.625 15.7705 L 16 4.6886 L 27.375 15.7705 ZM 13.8125 16.7705 C 13.8125 16.2182 13.3482 15.7705 12.7755 15.7705 L 9.8426 15.7705 C 9.2698 15.7705 8.5625 16.3852 8.5625 16.9375 L 8.5625 19.7969 C 8.5625 20.3492 9.2698 20.8853 9.8426 20.8853 L 12.4063 20.8853 C 12.979 20.8853 13.8125 20.0313 13.8125 19.479 L 13.8125 16.7705 Z" fill="#2e365c"/>
	</g>
</svg>