<?xml version="1.0" standalone="no"?>
<!-- Generator: Adobe Fireworks 10, Export SVG Extension by Aaron Beall (http://fireworks.abeall.com) . Version: 0.6.1  -->
<!DOCTYPE svg PUBLIC "-//W3C//DTD SVG 1.1//EN" "http://www.w3.org/Graphics/SVG/1.1/DTD/svg11.dtd">
<svg id="menu_projects_icon-Page%201" viewBox="0 0 32 26" style="background-color:#ffffff00" version="1.1"
	xmlns="http://www.w3.org/2000/svg" xmlns:xlink="http://www.w3.org/1999/xlink" xml:space="preserve"
	x="0px" y="0px" width="32px" height="26px"
>
	<g id="Background">
		<path id="SPEECH%203" d="M 28.6875 21.9655 L 22.5625 21.9655 L 22.5625 21.9655 L 12.5001 21.9655 L 12.5001 21.9655 L 11.1875 21.9655 L 11.1875 21.9655 L 10.8562 21.9655 L 7.3031 25.6061 C 7.0656 25.8495 6.7375 26 6.3751 26 L 6.3751 26 L 6.3751 26 C 6.3695 26 6.3643 25.9984 6.3587 25.9983 C 6.0029 25.9937 5.6808 25.8457 5.4469 25.6061 C 5.4416 25.6006 5.4377 25.5937 5.4324 25.5881 C 5.3794 25.5318 5.3296 25.4722 5.2867 25.4071 C 5.2697 25.3812 5.2583 25.3517 5.243 25.3247 C 5.216 25.2768 5.1869 25.2301 5.1657 25.1786 C 5.1556 25.1543 5.1512 25.1273 5.1426 25.1024 C 5.1226 25.0446 5.1014 24.9873 5.0892 24.9261 C 5.0717 24.8386 5.0625 24.748 5.0625 24.6552 L 5.0625 24.6552 L 5.0625 21.9655 L 4.8438 21.9655 L 4.8438 21.9655 L 3.3119 21.9655 C 2.5874 21.9651 2 21.3633 2 20.6207 L 2 1.3449 C 2 0.6021 2.5876 0 3.3125 0 L 28.6875 0 C 29.4124 0 30 0.6021 30 1.3449 L 30 20.6207 C 30 21.3634 29.4124 21.9655 28.6875 21.9655 ZM 9.4375 8.5173 C 7.9878 8.5173 6.8125 9.7215 6.8125 11.2069 C 6.8125 12.6924 7.9878 13.8965 9.4375 13.8965 C 10.8873 13.8965 12.0625 12.6924 12.0625 11.2069 C 12.0625 9.7215 10.8873 8.5173 9.4375 8.5173 ZM 16 8.5173 C 14.5503 8.5173 13.375 9.7215 13.375 11.2069 C 13.375 12.6924 14.5503 13.8965 16 13.8965 C 17.4498 13.8965 18.625 12.6924 18.625 11.2069 C 18.625 9.7215 17.4498 8.5173 16 8.5173 ZM 22.5625 8.5173 C 21.1128 8.5173 19.9375 9.7215 19.9375 11.2069 C 19.9375 12.6924 21.1128 13.8965 22.5625 13.8965 C 24.0122 13.8965 25.1875 12.6924 25.1875 11.2069 C 25.1875 9.7215 24.0122 8.5173 22.5625 8.5173 Z" fill="#2e365c"/>
	</g>
	<g id="Layer%201">
	</g>
</svg>