<?xml version="1.0" standalone="no"?>
<!-- Generator: Adobe Fireworks 10, Export SVG Extension by Aaron Beall (http://fireworks.abeall.com) . Version: 0.6.1  -->
<!DOCTYPE svg PUBLIC "-//W3C//DTD SVG 1.1//EN" "http://www.w3.org/Graphics/SVG/1.1/DTD/svg11.dtd">
<svg id="menu_projects_icon-Page%201" viewBox="0 0 32 26" style="background-color:#ffffff00" version="1.1"
	xmlns="http://www.w3.org/2000/svg" xmlns:xlink="http://www.w3.org/1999/xlink" xml:space="preserve"
	x="0px" y="0px" width="32px" height="26px"
>
	<g id="Background">
		<path id="USERS" d="M 31.9993 23.2007 C 31.9993 23.2016 31.9994 23.2024 31.9994 23.2032 C 31.9994 23.768 31.5535 24.2258 31.0033 24.2258 L 23.58 24.2258 C 24.1361 24.0993 24.5529 23.5919 24.5529 22.9832 C 24.5529 22.9821 24.5526 22.9812 24.5526 22.9801 L 24.5534 22.9801 C 24.5534 22.9801 24.5534 18.3359 21.2467 16.6474 C 19.8332 15.9257 19.7399 16.0633 19.038 15.8925 L 19.0573 13.8804 C 19.0573 13.8804 18.2853 13.2745 18.0457 11.3746 C 17.5624 11.5179 17.403 10.7927 17.3745 10.3309 C 17.3486 9.885 17.095 8.4919 17.6842 8.6176 C 17.5637 7.6874 17.4771 6.8487 17.5195 6.4042 C 17.6673 4.8443 19.1315 3.2145 21.3867 3.0954 C 24.0394 3.2142 25.0904 4.8432 25.2376 6.403 C 25.2806 6.8475 25.1861 7.687 25.0653 8.6156 C 25.655 8.4914 25.3986 9.8822 25.37 10.3283 C 25.3439 10.7901 25.1807 11.5128 24.6991 11.3698 C 24.4581 13.2695 23.6864 13.8706 23.6864 13.8706 L 23.7044 15.8795 C 23.7044 15.8795 24.1925 16.1656 26.2533 17.0416 C 28.3146 17.9187 27.6681 17.2627 29.3471 18.1201 C 32 19.4747 32 23.2007 32 23.2007 L 31.9993 23.2007 ZM 17.0498 16.3291 C 19.3154 17.2932 18.6046 16.5722 20.4502 17.5146 C 23.3662 19.0035 23.3662 23.0991 23.3662 23.0991 L 23.3655 23.0991 C 23.3655 23.1 23.3658 23.1009 23.3658 23.1018 C 23.3658 23.7226 22.8755 24.2258 22.2705 24.2258 C 22.2705 24.2258 20.5714 25 11.9048 25 C 3.2381 25 1.0957 24.2258 1.0957 24.2258 C 0.4909 24.2258 0.0006 23.7226 0.0006 23.1018 C 0.0006 23.1009 0.0007 23.1 0.0007 23.0991 L 0 23.0991 C 0 23.0991 0 19.0035 2.9163 17.5141 C 4.7615 16.5721 4.0512 17.3368 6.3166 16.3724 C 8.582 15.4099 9.1188 15.0738 9.1188 15.0738 L 9.14 12.8545 C 9.14 12.8545 8.2915 12.1884 8.028 10.1001 C 7.4969 10.2576 7.3216 9.4606 7.2904 8.953 C 7.2619 8.4629 6.9832 6.9316 7.6308 7.0698 C 7.4981 6.0473 7.403 5.1255 7.4498 4.6369 C 7.6123 2.9222 9.2214 1.1309 11.7003 1 C 14.6162 1.1306 15.7713 2.921 15.9331 4.6356 C 15.9805 5.1242 15.8764 6.0468 15.7439 7.0674 C 16.3918 6.931 16.1101 8.4598 16.0787 8.9501 C 16.05 9.4577 15.8706 10.2521 15.3411 10.0948 C 15.0765 12.183 14.2281 12.8439 14.2281 12.8439 L 14.2479 15.0518 C 14.2479 15.0518 14.7844 15.3662 17.0498 16.3291 Z" fill="#2e365c"/>
	</g>
	<g id="Layer%201">
	</g>
</svg>