<?xml version="1.0" standalone="no"?>
<!-- Generator: Adobe Fireworks 10, Export SVG Extension by Aaron Beall (http://fireworks.abeall.com) . Version: 0.6.1  -->
<!DOCTYPE svg PUBLIC "-//W3C//DTD SVG 1.1//EN" "http://www.w3.org/Graphics/SVG/1.1/DTD/svg11.dtd">
<svg id="menu_projects_icon" viewBox="0 0 32 26" style="background-color:#ffffff00" version="1.1"
	xmlns="http://www.w3.org/2000/svg" xmlns:xlink="http://www.w3.org/1999/xlink" xml:space="preserve"
	x="0px" y="0px" width="32px" height="26px"
>
	<g id="Background">
		<path id="SUITCASE" d="M 29.5938 26 L 27.25 26 L 27.25 15.2413 L 27.25 6.7241 L 29.5938 6.7241 C 30.3704 6.7241 31 7.3262 31 8.069 L 31 16.5862 L 31 21.9655 L 31 24.6552 C 31 25.3978 30.3704 26 29.5938 26 ZM 6.1562 26 L 6.1562 15.2413 L 6.1562 14.7931 L 6.1562 6.7241 L 8.9687 6.7241 C 8.9687 3.0105 12.1167 0 16 0 C 19.8833 0 23.0313 3.0105 23.0313 6.7241 L 25.8438 6.7241 L 25.8438 15.2413 L 25.8438 26 L 6.1562 26 ZM 16 2.6896 C 13.67 2.6896 11.7813 4.4959 11.7813 6.7241 L 20.2188 6.7241 C 20.2188 4.4959 18.33 2.6896 16 2.6896 ZM 1 24.6552 L 1 21.9655 L 1 16.5862 L 1 8.069 C 1 7.3262 1.6296 6.7241 2.4062 6.7241 L 4.75 6.7241 L 4.75 14.7931 L 4.75 15.2413 L 4.75 26 L 2.4062 26 C 1.6296 26 1 25.3978 1 24.6552 Z" fill="#2e365c"/>
	</g>
	<g id="Layer%201">
	</g>
</svg>