<?xml version="1.0" standalone="no"?>
<!-- Generator: Adobe Fireworks 10, Export SVG Extension by Aaron Beall (http://fireworks.abeall.com) . Version: 0.6.1  -->
<!DOCTYPE svg PUBLIC "-//W3C//DTD SVG 1.1//EN" "http://www.w3.org/Graphics/SVG/1.1/DTD/svg11.dtd">
<svg id="Untitled-Page%201" viewBox="0 0 32 26" style="background-color:#ffffff00" version="1.1"
	xmlns="http://www.w3.org/2000/svg" xmlns:xlink="http://www.w3.org/1999/xlink" xml:space="preserve"
	x="0px" y="0px" width="32px" height="26px"
>
	<g id="Layer%201">
		<path d="M 22.3438 6.7777 L 9.6562 6.7777 C 9.2938 6.7777 9 6.3798 9 5.8889 C 9 5.3979 9.4345 4.8594 9.7969 4.8594 L 22.2188 4.8594 C 22.5812 4.8594 23 5.3979 23 5.8889 C 23 6.3798 22.7062 6.7777 22.3438 6.7777 ZM 9.6562 9.7407 L 19.7187 9.7407 C 20.0812 9.7407 20.375 10.1387 20.375 10.6295 C 20.375 11.1205 20.0812 11.5185 19.7187 11.5185 L 9.6562 11.5185 C 9.2938 11.5185 9 11.1206 9 10.6296 C 9 10.1387 9.2938 9.7407 9.6562 9.7407 ZM 9.6562 14.4815 L 22.3438 14.4815 C 22.7062 14.4815 23 14.8794 23 15.3704 C 23 15.8613 22.7062 16.2592 22.3438 16.2592 L 9.6562 16.2592 C 9.2938 16.2592 9 15.8613 9 15.3704 C 9 14.8794 9.2938 14.4815 9.6562 14.4815 ZM 9.6562 19.2222 L 18.4063 19.2222 C 18.7687 19.2222 19.0625 19.6202 19.0625 20.1111 C 19.0625 20.602 18.7687 21 18.4063 21 L 9.6562 21 C 9.2938 21 9 20.602 9 20.1111 C 9 19.6202 9.2938 19.2222 9.6562 19.2222 ZM 8.4828 26 L 23.5172 26 C 25.8383 26 28 23.8383 28 21.5172 L 28 4.4828 C 28 2.1617 25.8383 0 23.5172 0 L 8.4828 0 C 6.1617 0 4 2.1617 4 4.4828 L 4 21.5172 C 4 23.8383 6.1617 26 8.4828 26 Z" fill="#2e365c"/>
	</g>
</svg>