<?xml version="1.0" standalone="no"?>
<!-- Generator: Adobe Fireworks 10, Export SVG Extension by Aaron Beall (http://fireworks.abeall.com) . Version: 0.6.1  -->
<!DOCTYPE svg PUBLIC "-//W3C//DTD SVG 1.1//EN" "http://www.w3.org/Graphics/SVG/1.1/DTD/svg11.dtd">
<svg id="menu_projects_icon-Page%201" viewBox="0 0 32 26" style="background-color:#ffffff00" version="1.1"
	xmlns="http://www.w3.org/2000/svg" xmlns:xlink="http://www.w3.org/1999/xlink" xml:space="preserve"
	x="0px" y="0px" width="32px" height="26px"
>
	<g id="Background">
		<path id="LIST%202" d="M 28.5001 14.5 L 12.5001 14.5 C 12.5001 14.5 12.5001 14.5 12.5 14.5 C 11.6716 14.5 11.0001 13.8284 11.0001 13 C 11.0001 12.1716 11.6716 11.5001 12.5 11.5001 C 12.5003 11.5001 12.5005 11.5001 12.5009 11.5001 L 28.5001 11.5001 C 29.3284 11.5001 30.0001 12.1716 30.0001 13 C 30.0001 13.8286 29.3284 14.5 28.5001 14.5 ZM 28.5001 6.5001 L 12.5 6.5001 L 12.5 6.5001 C 11.6716 6.5001 11.0001 5.8285 11.0001 5.0001 C 11.0001 4.1716 11.6716 3.5001 12.5 3.5001 C 12.5002 3.5001 12.5005 3.5001 12.5007 3.5001 L 28.5001 3.5001 C 29.3284 3.5001 30.0001 4.1716 30.0001 5.0001 C 30.0001 5.8285 29.3284 6.5001 28.5001 6.5001 ZM 6.5001 22.5 L 6.5001 22.5001 L 3.5001 22.5001 C 2.6716 22.5001 2.0001 21.8285 2.0001 21 C 2.0001 20.1716 2.6716 19.5001 3.5001 19.5001 L 6.4996 19.5001 C 6.4998 19.5001 6.4999 19.5001 6.5001 19.5001 C 7.3284 19.5001 8 20.1716 8 21 C 8 21.8285 7.3284 22.5 6.5001 22.5 ZM 6.5001 14.5 C 6.4999 14.5 6.4999 14.5 6.4999 14.5 L 3.5001 14.5 C 2.6716 14.5 2.0001 13.8286 2.0001 13 C 2.0001 12.1716 2.6716 11.5001 3.5001 11.5001 L 6.4991 11.5001 C 6.4995 11.5001 6.4998 11.5001 6.5001 11.5001 C 7.3284 11.5001 8 12.1716 8 13 C 8 13.8284 7.3284 14.5 6.5001 14.5 ZM 6.5001 6.5001 L 6.5001 6.5001 L 3.5001 6.5001 C 2.6716 6.5001 2.0001 5.8285 2.0001 5.0001 C 2.0001 4.1716 2.6716 3.5001 3.5001 3.5001 L 6.4993 3.5001 C 6.4996 3.5001 6.4998 3.5001 6.5001 3.5001 C 7.3284 3.5001 8 4.1716 8 5.0001 C 8 5.8285 7.3284 6.5001 6.5001 6.5001 ZM 12.5 22.5 C 11.6716 22.5 11.0001 21.8285 11.0001 21 C 11.0001 20.1716 11.6716 19.5001 12.5 19.5001 C 12.5002 19.5001 12.5003 19.5001 12.5004 19.5001 L 28.5001 19.5001 C 29.3284 19.5001 30.0001 20.1716 30.0001 21 C 30.0001 21.8285 29.3284 22.5001 28.5001 22.5001 L 12.4999 22.5001 L 12.5 22.5 Z" fill="#2e365c"/>
	</g>
	<g id="Layer%201">
	</g>
</svg>