<?xml version="1.0" standalone="no"?>
<!-- Generator: Adobe Fireworks 10, Export SVG Extension by Aaron Beall (http://fireworks.abeall.com) . Version: 0.6.1  -->
<!DOCTYPE svg PUBLIC "-//W3C//DTD SVG 1.1//EN" "http://www.w3.org/Graphics/SVG/1.1/DTD/svg11.dtd">
<svg id="Untitled-Page%201" viewBox="0 0 32 26" style="background-color:#ffffff00" version="1.1"
	xmlns="http://www.w3.org/2000/svg" xmlns:xlink="http://www.w3.org/1999/xlink" xml:space="preserve"
	x="0px" y="0px" width="32px" height="26px"
>
	<g id="Layer%201">
		<path id="LINE%20GRAPH" d="M 7.4828 26 C 5.1617 26 3 23.8383 3 21.5172 L 3 4.4828 C 3 2.1617 5.1617 0 7.4828 0 L 24.5172 0 C 26.8383 0 29 2.1617 29 4.4828 L 29 21.5172 C 29 23.8383 26.8383 26 24.5172 26 L 7.4828 26 ZM 26.9267 4.5948 C 26.9267 3.2023 25.7978 2.0734 24.4051 2.0734 L 7.5948 2.0734 C 6.2021 2.0734 5.0732 3.2023 5.0732 4.5948 L 5.0732 21.4053 C 5.0732 22.7978 6.2021 23.9268 7.5948 23.9268 L 24.4051 23.9268 C 25.7978 23.9268 26.9267 22.7978 26.9267 21.4053 L 26.9267 4.5948 ZM 6.9354 13.2008 L 6.9347 13.1998 L 10.2974 11.0995 C 10.4893 10.9816 10.7151 10.9133 10.9568 10.9133 C 11.2185 10.9133 11.4615 10.9931 11.6631 11.1296 L 17.2412 14.8377 L 23.6612 10.3058 C 23.8698 10.1532 24.1269 10.0628 24.4051 10.0628 C 25.1014 10.0628 25.6659 10.6274 25.6659 11.3236 C 25.6659 11.6112 25.6659 16.6644 25.6659 19.8293 C 25.6659 21.2219 24.537 22.3507 23.1443 22.3507 L 8.8555 22.3507 C 7.4629 22.3507 6.334 21.2218 6.334 19.8292 C 6.334 17.6216 6.3341 14.7009 6.3341 14.2755 C 6.3341 13.8209 6.5747 13.4226 6.9354 13.2008 Z" fill="#2e365c"/>
	</g>
</svg>