<?xml version="1.0" standalone="no"?>
<!-- Generator: Adobe Fireworks 10, Export SVG Extension by Aaron Beall (http://fireworks.abeall.com) . Version: 0.6.1  -->
<!DOCTYPE svg PUBLIC "-//W3C//DTD SVG 1.1//EN" "http://www.w3.org/Graphics/SVG/1.1/DTD/svg11.dtd">
<svg id="menu_projects_icon-Page%201" viewBox="0 0 32 26" style="background-color:#ffffff00" version="1.1"
	xmlns="http://www.w3.org/2000/svg" xmlns:xlink="http://www.w3.org/1999/xlink" xml:space="preserve"
	x="0px" y="0px" width="32px" height="26px"
>
	<g id="Background">
		<path id="BOOK" d="M 25.68 26 L 24.36 26 L 24.36 0 L 25.68 0 C 26.409 0 27 0.6021 27 1.3448 L 27 24.6552 C 27 25.3979 26.409 26 25.68 26 ZM 7.64 24.6552 L 7.64 23.3104 L 9.84 23.3104 C 11.298 23.3104 12.48 22.1062 12.48 20.6207 C 12.48 19.1353 11.298 17.931 9.84 17.931 L 7.64 17.931 L 7.64 15.6896 L 9.84 15.6896 C 11.298 15.6896 12.48 14.4854 12.48 13 C 12.48 11.5146 11.298 10.3104 9.84 10.3104 L 7.64 10.3104 L 7.64 8.069 L 9.84 8.069 C 11.298 8.069 12.48 6.8648 12.48 5.3793 C 12.48 3.8938 11.298 2.6897 9.84 2.6897 L 7.64 2.6897 L 7.64 1.3448 C 7.64 0.6021 8.231 0 8.96 0 L 23.04 0 L 23.04 26 L 8.96 26 C 8.231 26 7.64 25.3979 7.64 24.6552 ZM 11.16 5.3793 C 11.16 6.122 10.569 6.7242 9.84 6.7242 L 6.32 6.7242 C 5.591 6.7242 5 6.122 5 5.3793 C 5 4.6367 5.591 4.0344 6.32 4.0344 L 9.84 4.0344 C 10.569 4.0344 11.16 4.6367 11.16 5.3793 ZM 6.32 11.6552 L 9.84 11.6552 C 10.569 11.6552 11.16 12.2573 11.16 13 C 11.16 13.7427 10.569 14.3448 9.84 14.3448 L 6.32 14.3448 C 5.591 14.3448 5 13.7427 5 13 C 5 12.2573 5.591 11.6552 6.32 11.6552 ZM 6.32 19.2759 L 9.84 19.2759 C 10.569 19.2759 11.16 19.878 11.16 20.6207 C 11.16 21.3635 10.569 21.9655 9.84 21.9655 L 6.32 21.9655 C 5.591 21.9655 5 21.3635 5 20.6207 C 5 19.878 5.591 19.2759 6.32 19.2759 Z" fill="#2e365c"/>
	</g>
	<g id="Layer%201">
	</g>
</svg>