<?xml version="1.0" standalone="no"?>
<!-- Generator: Adobe Fireworks 10, Export SVG Extension by Aaron Beall (http://fireworks.abeall.com) . Version: 0.6.1  -->
<!DOCTYPE svg PUBLIC "-//W3C//DTD SVG 1.1//EN" "http://www.w3.org/Graphics/SVG/1.1/DTD/svg11.dtd">
<svg id="Untitled-Page%201" viewBox="0 0 15 19" style="background-color:#ffffff00" version="1.1"
	xmlns="http://www.w3.org/2000/svg" xmlns:xlink="http://www.w3.org/1999/xlink" xml:space="preserve"
	x="0px" y="0px" width="15px" height="19px"
>
	<g id="Layer%201">
		<path id="DOCUMENT" d="M 13.9773 19 L 1.0227 19 C 0.4579 19 0 18.5602 0 18.0178 L 0 0.9938 C 0 0.4515 0.4579 0.0117 1.0227 0.0117 L 6.4773 0.0117 L 6.4773 3.6091 L 6.4773 5.5776 C 6.4773 6.6648 7.3931 7.5463 8.5227 7.5463 L 10.5682 7.5463 L 15 7.5463 L 15 15.3987 L 15 18.0178 C 15 18.5602 14.5421 19 13.9773 19 ZM 8.5227 6.562 C 7.9579 6.562 7.5 6.1213 7.5 5.5776 L 7.5 3.6091 L 7.5 0 L 15 6.562 L 10.5682 6.562 L 8.5227 6.562 Z" fill="#56c7ee"/>
	</g>
</svg>