<?xml version="1.0" standalone="no"?>
<!-- Generator: Adobe Fireworks 10, Export SVG Extension by Aaron Beall (http://fireworks.abeall.com) . Version: 0.6.1  -->
<!DOCTYPE svg PUBLIC "-//W3C//DTD SVG 1.1//EN" "http://www.w3.org/Graphics/SVG/1.1/DTD/svg11.dtd">
<svg id="Untitled-Page%201" viewBox="0 0 20 10" style="background-color:#ffffff00" version="1.1"
	xmlns="http://www.w3.org/2000/svg" xmlns:xlink="http://www.w3.org/1999/xlink" xml:space="preserve"
	x="0px" y="0px" width="20px" height="10px"
>
	<g id="Layer%201">
		<path id="ARROW%20/%20DOWN" d="M 2.512 0.4358 L 9.9968 6.9851 L 17.5796 0.3501 L 17.58 0.3506 C 17.8369 0.1337 18.1863 0 18.5714 0 C 19.3604 0 20 0.5597 20 1.25 C 20 1.5872 19.8474 1.8927 19.5995 2.1176 L 19.5999 2.1179 L 11.0284 9.6179 L 11.0281 9.6176 C 10.7682 9.8531 10.4039 10 10 10 C 9.9989 10 9.9979 10 9.9968 10 C 9.9958 10 9.9948 10 9.9938 10 C 9.5898 10 9.2255 9.8531 8.9657 9.6176 L 8.9653 9.6179 L 0.3939 2.1179 L 0.3975 2.1146 C 0.1515 1.89 0 1.5857 0 1.25 C 0 0.5597 0.6396 0 1.4286 0 C 1.8619 0 2.25 0.1691 2.512 0.4358 Z" fill="#555555"/>
	</g>
</svg>