<?xml version="1.0" standalone="no"?>
<!-- Generator: Adobe Fireworks 10, Export SVG Extension by Aaron Beall (http://fireworks.abeall.com) . Version: 0.6.1  -->
<!DOCTYPE svg PUBLIC "-//W3C//DTD SVG 1.1//EN" "http://www.w3.org/Graphics/SVG/1.1/DTD/svg11.dtd">
<svg id="Untitled-Page%201" viewBox="0 0 16 16" style="background-color:#ffffff00" version="1.1"
	xmlns="http://www.w3.org/2000/svg" xmlns:xlink="http://www.w3.org/1999/xlink" xml:space="preserve"
	x="0px" y="0px" width="16px" height="16px"
>
	<g id="Layer%201">
		<path id="COG" d="M 13.8793 9.6089 C 13.7437 10.0974 13.5464 10.5597 13.3 10.9902 C 13.3364 11.0355 14.6316 12.6638 13.8357 13.4596 L 13.4387 13.8566 C 12.8425 14.4528 11.3486 13.5181 10.9921 13.2805 C 10.5374 13.5356 10.047 13.7346 9.5294 13.8667 L 9.634 13.8699 C 9.634 13.8699 9.351 16 8.2095 16 L 7.8177 16 C 6.9475 16 6.4626 14.1752 6.3788 13.8309 C 5.8669 13.6871 5.3829 13.478 4.9355 13.2134 L 5.0139 13.2968 C 5.0139 13.2968 3.3275 14.6228 2.5203 13.8157 L 2.1635 13.5188 C 1.55 12.9052 2.5386 11.2802 2.7365 10.9701 C 2.4978 10.549 2.306 10.0979 2.1727 9.6218 C 1.8375 9.5405 0 9.0555 0 8.1821 L 0 7.7905 C 0 6.7825 1.7522 6.4444 2.1625 6.3789 C 2.2938 5.8992 2.4846 5.4444 2.7227 5.02 C 2.5347 4.7341 1.5061 3.1018 2.1251 2.4829 L 2.502 2.1658 C 3.2122 1.4558 4.6674 2.4617 5.0071 2.7139 C 5.4373 2.4672 5.8994 2.2701 6.3875 2.1337 C 6.4952 1.7062 6.9775 0 7.8177 0 L 8.2095 0 C 9.1881 0 9.5349 1.6501 9.6143 2.122 C 10.1093 2.256 10.5782 2.4524 11.0144 2.6995 C 11.3834 2.4591 12.9026 1.5304 13.4972 2.125 L 13.8541 2.5019 C 14.5498 3.1977 13.5847 4.6068 13.3044 4.9835 C 13.5504 5.4149 13.7468 5.8783 13.8818 6.3677 C 14.0065 6.3853 16 6.6846 16 7.7905 L 16 8.1821 C 16 9.0154 14.3243 9.496 13.8793 9.6089 ZM 8.0022 3.5019 C 5.5168 3.5019 3.502 5.5168 3.502 8.0023 C 3.502 10.4877 5.5168 12.5026 8.0022 12.5026 C 10.4877 12.5026 12.5026 10.4877 12.5026 8.0023 C 12.5026 5.5168 10.4877 3.5019 8.0022 3.5019 ZM 8.0022 11.0024 C 6.3453 11.0024 5.0021 9.6592 5.0021 8.0023 C 5.0021 6.3453 6.3453 5.002 8.0022 5.002 C 9.6593 5.002 11.0024 6.3453 11.0024 8.0023 C 11.0024 9.6592 9.6593 11.0024 8.0022 11.0024 ZM 8.0022 6.5021 C 7.1737 6.5021 6.5022 7.1738 6.5022 8.0023 C 6.5022 8.8307 7.1737 9.5023 8.0022 9.5023 C 8.8308 9.5023 9.5023 8.8307 9.5023 8.0023 C 9.5023 7.1738 8.8308 6.5021 8.0022 6.5021 Z" fill="#2e365c"/>
	</g>
</svg>